<svg xmlns="http://www.w3.org/2000/svg" width="46pt" height="46pt" viewBox="0 0 46 46" fill="#fff"><path d="M3.066 8.434h1.536v1.53H3.066zm0 0M6.133 8.434h1.535v1.53H6.133zm0 0M9.2 8.434h1.534v1.53H9.2zm0 0M13.035 8.434h26.832v1.53H13.035zm0 0"/><path d="M43.7 2.3H5.366c-1.304 0-2.3.997-2.3 2.302v.765H2.3C.996 5.367 0 6.363 0 7.668v33.73C0 42.703.996 43.7 2.3 43.7h38.333c1.304 0 2.3-.996 2.3-2.3v-2.297h.766c1.305 0 2.301-1 2.301-2.301V4.6c0-1.304-.996-2.3-2.3-2.3zM4.601 4.603c0-.461.304-.77.765-.77H43.7c.461 0 .766.309.766.77v2.296H42.78a2.238 2.238 0 00-2.148-1.53H4.602zM2.3 6.898h38.332c.46 0 .765.309.765.77V11.5H1.535V7.668c0-.461.305-.77.766-.77zm38.332 35.27H2.3c-.461 0-.766-.309-.766-.77V13.035h39.863v28.363c0 .461-.304.77-.765.77zm3.066-4.602h-.765V8.434h1.53V36.8c0 .46-.304.765-.765.765zm0 0"/><path d="M5.367 39.867h32.2v-4.601h-32.2zm30.668-1.535H32.2v-1.531h3.836zM6.898 36.801h23.77v1.531H6.898zm0 0M21.465 31.434A8.408 8.408 0 0029.898 23a8.408 8.408 0 00-8.433-8.434A8.407 8.407 0 0013.035 23a8.407 8.407 0 008.43 8.434zm-5.75-4.602c-.305-.457-.535-.996-.766-1.531h2.684c.46 0 .765.304.765.765s-.304.766-.765.766zm10.887.77h-2.836c-.461 0-.766-.309-.766-.77 0-.457.305-.766.766-.766 1.304 0 2.3-.996 2.3-2.3V23c0-.46.309-.766.766-.766h1.457a6.888 6.888 0 01-1.687 5.368zm1.382-6.903h-1.152c-1.3 0-2.297.996-2.297 2.301v.766c0 .46-.308.77-.77.77-1.3 0-2.3.995-2.3 2.296 0 1.305 1 2.3 2.3 2.3h.844c-2.453 1.227-5.367.923-7.437-.765h.46c1.305 0 2.302-.996 2.302-2.3 0-1.305-.997-2.301-2.301-2.301h-2.988a5.031 5.031 0 010-1.532h5.671c1.457 0 2.684-1.226 2.684-2.683 0-1.457-1.227-2.684-2.684-2.684h-1.992c3.371-1.765 7.512-.383 9.278 2.988.152.23.226.54.382.844zm-11.656-2.3h3.988c.614 0 1.149.538 1.149 1.152 0 .613-.535 1.148-1.149 1.148H14.95a7.124 7.124 0 011.38-2.3zm0 0M9.965 29.133H11.5v1.535H9.965zm0 0M9.965 32.2H11.5v1.534H9.965zm0 0M11.5 30.668h1.535v1.531H11.5zm0 0M8.434 30.668h1.53v1.531h-1.53zm0 0M31.434 26.832h1.53v1.535h-1.53zm0 0M31.434 29.898h1.53v1.536h-1.53zm0 0M32.965 28.367H34.5v1.531h-1.535zm0 0"/><path d="M29.898 28.367h1.536v1.531h-1.536zm0 0M32.2 16.102h1.534v1.53H32.2zm0 0M32.2 19.168h1.534v1.531H32.2zm0 0M33.734 17.633h1.532v1.535h-1.532zm0 0M30.668 17.633h1.531v1.535h-1.531zm0 0"/></svg>