<svg width="100" height="100" viewBox="0 0 100 100" fill="none" xmlns="http://www.w3.org/2000/svg">
<path d="M100 50C100 49.3926 99.9891 48.7875 99.9678 48.1854C99.0125 21.4117 77.0068 0 50 0C22.9932 0 0.9875 21.4117 0.0324219 48.1854C0.0109375 48.7875 0 49.3926 0 50C0 77.6143 25.684 98.1855 50 98.1855C74.7566 98.1855 100 77.6143 100 50Z" fill="#FF5876"/>
<path d="M50 96.3709C22.9936 96.3709 0.991797 74.9586 0.0363281 48.1854C0.0146484 48.7881 0 49.3922 0 50C0 77.6143 22.3857 100 50 100C77.6143 100 100 77.6143 100 50C100 49.3922 99.9854 48.7881 99.9639 48.1856C99.0082 74.9588 77.0064 96.3709 50 96.3709Z" fill="#E6485D"/>
<path d="M91.6834 48.1853C90.7334 25.9847 72.4346 8.27771 50 8.27771C27.5654 8.27771 9.26661 25.9847 8.31661 48.1853C8.29083 48.7871 8.31641 89.0683 50 89.0683C91.6836 89.0683 91.7092 48.7871 91.6834 48.1853Z" fill="#E4EEF9"/>
<path d="M50 88.0932C27.5656 88.0932 9.26972 70.3857 8.31933 48.1854C8.29355 48.7873 8.27773 49.3916 8.27773 49.9998C8.27773 73.0424 26.9574 91.7221 50 91.7221C73.0425 91.7221 91.7222 73.0426 91.7222 50C91.7222 49.3918 91.7062 48.7873 91.6806 48.1856C90.7302 70.3859 72.4343 88.0932 50 88.0932Z" fill="#D5E0F2"/>
<path d="M65.1553 35.3613C63.966 34.1885 62.0512 34.2015 60.8785 35.3906L53.782 42.5853L54.4951 46.0105L57.81 47.1148L65.1847 39.6381C66.3574 38.449 66.3443 36.5342 65.1553 35.3613Z" fill="#405B6C"/>
<path d="M45.7191 42.8608L29.625 28.5186C28.3779 27.4072 26.4664 27.5174 25.3553 28.7645C24.2441 30.0113 24.3541 31.9231 25.6012 33.0342L42.0123 47.6588L45.432 46.5182L45.7191 42.8608Z" fill="#405B6C"/>
<path d="M71.4133 69.4994C71.0699 69.4994 70.725 69.3832 70.4414 69.1451L51.2865 53.0557C50.6473 52.5185 50.5641 51.5646 51.1012 50.9254C51.6383 50.2857 52.592 50.2027 53.2316 50.74L72.3865 66.8297C73.0258 67.3668 73.109 68.3207 72.5719 68.96C72.2729 69.316 71.8445 69.4994 71.4133 69.4994Z" fill="#86DCFF"/>
<path d="M42.0123 47.6588L44.8365 50.1756L48.4635 48.9432L48.2668 45.1308L45.7193 42.8607C43.9469 43.9258 42.6053 45.6322 42.0123 47.6588Z" fill="#2D4456"/>
<path d="M53.7818 42.5856L51.3807 45.0199V49.7985H55.1631L57.81 47.1151C57.0826 45.1471 55.632 43.5313 53.7818 42.5856Z" fill="#2D4456"/>
<path d="M54.8404 48.1851C54.1057 46.2261 52.2156 44.8318 50 44.8318C47.7844 44.8318 45.8943 46.2261 45.1596 48.1851C44.9479 48.7498 45.1455 53.3535 50 53.3535C54.8545 53.3535 55.0521 48.7498 54.8404 48.1851Z" fill="#FF5876"/>
<path d="M50 51.5391C47.7844 51.5391 45.8951 50.1446 45.1603 48.1856C44.9484 48.7503 44.8318 49.3614 44.8318 50.0001C44.8318 52.8543 47.1457 55.168 49.9998 55.168C52.8541 55.168 55.1678 52.8542 55.1678 50.0001C55.1678 49.3614 55.0512 48.7503 54.8395 48.1856C54.1049 50.1444 52.2156 51.5391 50 51.5391Z" fill="#E6485D"/>
<path d="M51.515 18.276V13.5832C51.515 12.7465 50.8367 12.0682 50 12.0682C49.1633 12.0682 48.485 12.7465 48.485 13.5832V18.276C48.485 19.1127 49.1631 19.791 50 19.791C50.8369 19.791 51.515 19.1127 51.515 18.276Z" fill="#405B6C"/>
<path d="M48.485 81.724V86.4168C48.485 87.2535 49.1631 87.9318 50 87.9318C50.8369 87.9318 51.515 87.2535 51.515 86.4168V81.724C51.515 80.8873 50.8367 80.209 50 80.209C49.1633 80.209 48.485 80.8873 48.485 81.724Z" fill="#405B6C"/>
<path d="M86.4168 51.515C87.2537 51.515 87.9318 50.8367 87.9318 50C87.9318 49.1632 87.2535 48.4849 86.4168 48.4849H81.724C80.8873 48.4849 80.209 49.1632 80.209 50C80.209 50.8367 80.8873 51.515 81.724 51.515H86.4168Z" fill="#405B6C"/>
<path d="M13.5832 48.4849C12.7463 48.4849 12.0682 49.1632 12.0682 50C12.0682 50.8367 12.7463 51.515 13.5832 51.515H18.276C19.1129 51.515 19.791 50.8367 19.791 50C19.791 49.1632 19.1127 48.4849 18.276 48.4849H13.5832Z" fill="#405B6C"/>
</svg>
