<svg width="41" height="41" viewBox="0 0 41 41" fill="none" xmlns="http://www.w3.org/2000/svg">
<path d="M7.35155 4.80469C7.35155 3.92164 8.07006 3.20312 8.95311 3.20312H22.958V8.89743C22.958 11.5469 25.1133 13.7021 27.7627 13.7021H33.4483V23.2227H36.6514V11.4396L25.2697 0H8.95311C6.30396 0 4.14842 2.15523 4.14842 4.80469V23.2227H7.35155V4.80469ZM26.1611 8.89743V5.43718L31.1973 10.499H27.7627C26.8797 10.499 26.1611 9.78079 26.1611 8.89743ZM38.9824 36.5557C38.9824 39.0062 36.9889 41 34.5381 41H27.3711V37.7969H34.5381C35.2225 37.7969 35.7793 37.2401 35.7793 36.5557C35.7793 35.8712 35.2225 35.3145 34.5381 35.3145H31.8154C29.3649 35.3145 27.3711 33.3206 27.3711 30.8701C27.3711 28.4196 29.3649 26.4258 31.8154 26.4258H37.3008V29.6289H31.8154C31.131 29.6289 30.5742 30.1857 30.5742 30.8701C30.5742 31.5545 31.131 32.1113 31.8154 32.1113H34.5381C36.9889 32.1113 38.9824 34.1051 38.9824 36.5557ZM26.1699 36.5557C26.1699 39.0062 24.1764 41 21.7256 41H14.5586V37.7969H21.7256C22.41 37.7969 22.9668 37.2401 22.9668 36.5557C22.9668 35.8712 22.41 35.3145 21.7256 35.3145H19.0029C16.5524 35.3145 14.5586 33.3206 14.5586 30.8701C14.5586 28.4196 16.5524 26.4258 19.0029 26.4258H24.4883V29.6289H19.0029C18.3185 29.6289 17.7617 30.1857 17.7617 30.8701C17.7617 31.5545 18.3185 32.1113 19.0029 32.1113H21.7256C24.1764 32.1113 26.1699 34.1051 26.1699 36.5557ZM5.20508 33.7129C5.20508 35.9648 7.0353 37.7969 9.28468 37.7969C9.86243 37.7969 10.4205 37.6786 10.9432 37.4453L12.2482 40.3706C11.3123 40.7882 10.3151 41 9.28468 41C5.26889 41 2.00195 37.7309 2.00195 33.7129C2.00195 29.6946 5.26889 26.4258 9.28468 26.4258C10.3151 26.4258 11.3123 26.6376 12.2482 27.0551L10.9432 29.9802C10.4205 29.7471 9.86243 29.6286 9.28468 29.6286C7.0353 29.6289 5.20508 31.461 5.20508 33.7129Z" fill="#EBEBEB"/>
</svg>
