<svg width="19" height="19" viewBox="0 0 19 19" fill="none" xmlns="http://www.w3.org/2000/svg">
<path d="M16.0189 5.16801V0.63916H2.98112V5.16801L0 7.29735V18.3613H19V7.29735L16.0189 5.16801ZM6.75364 12.6942L1.11329 16.723V8.66547L6.75364 12.6942ZM9.5 12.1007L16.7063 17.248H2.29367L9.5 12.1007ZM12.2464 12.6942L17.8867 8.66547V16.7229L12.2464 12.6942ZM17.4857 7.5838L16.0189 8.63148V6.53612L17.4857 7.5838ZM14.9056 1.75245V9.4267L11.2887 12.0102L9.5 10.7326L7.71132 12.0102L4.0944 9.4267V1.75245H14.9056ZM2.98112 8.63151L1.51433 7.58384L2.98112 6.53616V8.63151Z" fill="white"/>
<path d="M5.66718 3.19434H9.49994V4.30762H5.66718V3.19434Z" fill="white"/>
<path d="M5.66718 5.74951H13.3327V6.86279H5.66718V5.74951Z" fill="white"/>
<path d="M5.66718 8.30469H13.3327V9.41797H5.66718V8.30469Z" fill="white"/>
</svg>
