<svg width="54" height="49" viewBox="0 0 54 49" fill="none" xmlns="http://www.w3.org/2000/svg">
<g filter="url(#filter0_d)">
<path d="M7.4924 13.4055H14.5989C14.971 13.4055 15.2727 13.1039 15.2727 12.7317C15.2727 12.3595 14.971 12.0579 14.5989 12.0579H7.4924C7.12027 12.0579 6.81857 12.3595 6.81857 12.7317C6.81857 13.1039 7.12018 13.4055 7.4924 13.4055Z" fill="white"/>
<path d="M14.3552 16.6495H11.5479C11.1758 16.6495 10.8741 16.9511 10.8741 17.3234C10.8741 17.6956 11.1758 17.9972 11.5479 17.9972H14.3552C14.7273 17.9972 15.029 17.6956 15.029 17.3234C15.029 16.9511 14.7273 16.6495 14.3552 16.6495Z" fill="white"/>
<path d="M4.67383 21.3224H11.548C11.9201 21.3224 12.2218 21.0208 12.2218 20.6486C12.2218 20.2763 11.9201 19.9747 11.548 19.9747H4.67383C4.3017 19.9747 4 20.2763 4 20.6486C4 21.0208 4.3017 21.3224 4.67383 21.3224Z" fill="white"/>
<path d="M15.2727 33.2681C15.2727 32.8958 14.971 32.5942 14.5989 32.5942H7.4924C7.12027 32.5942 6.81857 32.8958 6.81857 33.2681C6.81857 33.6403 7.12027 33.9419 7.4924 33.9419H14.5989C14.971 33.9419 15.2727 33.6403 15.2727 33.2681Z" fill="white"/>
<path d="M14.3552 28.0027H11.5479C11.1758 28.0027 10.8741 28.3043 10.8741 28.6765C10.8741 29.0487 11.1758 29.3503 11.5479 29.3503H14.3552C14.7273 29.3503 15.029 29.0487 15.029 28.6765C15.029 28.3043 14.7273 28.0027 14.3552 28.0027Z" fill="white"/>
<path d="M12.2218 25.3514C12.2218 24.9792 11.9201 24.6776 11.548 24.6776H4.67383C4.3017 24.6776 4 24.9792 4 25.3514C4 25.7237 4.3017 26.0253 4.67383 26.0253H11.548C11.9201 26.0253 12.2218 25.7237 12.2218 25.3514Z" fill="white"/>
<path d="M32.7077 14.8988C33.0799 14.8988 33.3815 14.5972 33.3815 14.2249V13.1964C33.3815 12.8242 33.0799 12.5226 32.7077 12.5226C32.3354 12.5226 32.0338 12.8242 32.0338 13.1964V14.2249C32.0338 14.5972 32.3354 14.8988 32.7077 14.8988Z" fill="white"/>
<path d="M40.1163 15.5912C39.8531 15.3282 39.4265 15.3282 39.1633 15.5912L38.436 16.3185C38.1729 16.5817 38.1729 17.0083 38.436 17.2715C38.6994 17.5346 39.1259 17.5345 39.389 17.2715L40.1163 16.5442C40.3794 16.281 40.3794 15.8545 40.1163 15.5912Z" fill="white"/>
<path d="M41.4827 22.3262C41.1105 22.3262 40.8089 22.6278 40.8089 23C40.8089 23.3722 41.1105 23.6738 41.4827 23.6738H42.5112C42.8834 23.6738 43.185 23.3722 43.185 23C43.185 22.6278 42.8834 22.3262 42.5112 22.3262H41.4827Z" fill="white"/>
<path d="M39.389 28.7283C39.1258 28.4652 38.6992 28.4652 38.436 28.7283C38.1729 28.9915 38.1729 29.4181 38.436 29.6813L39.1633 30.4086C39.4267 30.6717 39.8532 30.6716 40.1163 30.4086C40.3795 30.1453 40.3795 29.7187 40.1163 29.4556L39.389 28.7283Z" fill="white"/>
<path d="M32.0338 31.775V32.8035C32.0338 33.1757 32.3354 33.4773 32.7077 33.4773C33.0799 33.4773 33.3815 33.1757 33.3815 32.8035V31.775C33.3815 31.4028 33.0799 31.1012 32.7077 31.1012C32.3354 31.1012 32.0338 31.4029 32.0338 31.775Z" fill="white"/>
<path d="M26.0263 28.7283L25.299 29.4556C25.0358 29.7188 25.0358 30.1454 25.299 30.4086C25.5622 30.6717 25.9888 30.6716 26.2519 30.4086L26.9792 29.6813C27.2423 29.418 27.2423 28.9915 26.9792 28.7283C26.7161 28.4652 26.2894 28.4652 26.0263 28.7283Z" fill="white"/>
<path d="M22.9041 22.3262C22.532 22.3262 22.2303 22.6278 22.2303 23C22.2303 23.3722 22.532 23.6738 22.9041 23.6738H23.9326C24.3048 23.6738 24.6065 23.3722 24.6065 23C24.6065 22.6278 24.3048 22.3262 23.9326 22.3262H22.9041Z" fill="white"/>
<path d="M26.9792 16.3185L26.252 15.5912C25.9888 15.3282 25.5621 15.3282 25.2991 15.5912C25.0359 15.8545 25.0359 16.281 25.2991 16.5442L26.0264 17.2715C26.2896 17.5346 26.7162 17.5345 26.9792 17.2715C27.2424 17.0083 27.2424 16.5817 26.9792 16.3185Z" fill="white"/>
<path d="M36.3311 22.9999C36.3311 22.6277 36.0295 22.3261 35.6572 22.3261H33.3815V17.3232C33.3815 16.951 33.0799 16.6494 32.7077 16.6494C32.3354 16.6494 32.0338 16.951 32.0338 17.3232V22.9999C32.0338 23.3721 32.3354 23.6737 32.7077 23.6737H35.6572C36.0294 23.6737 36.3311 23.3721 36.3311 22.9999Z" fill="white"/>
<path d="M45.4845 22.8887C45.856 22.8662 46.1389 22.5468 46.1163 22.1754C45.6877 15.1044 39.7979 9.56543 32.7076 9.56543C25.2998 9.56543 19.2731 15.5921 19.2731 23C19.2731 30.4078 25.2998 36.4346 32.7076 36.4346C39.3443 36.4346 45.0072 31.572 45.9923 25.0103C46.0476 24.6423 45.794 24.2992 45.426 24.2439C45.0589 24.1888 44.7148 24.4421 44.6596 24.8103C43.7746 30.7053 38.6844 35.087 32.7076 35.087C26.0429 35.087 20.6207 29.6648 20.6207 23.0001C20.6207 16.3354 26.0429 10.9132 32.7076 10.9132C39.0866 10.9132 44.3855 15.896 44.7711 22.2571C44.7935 22.6284 45.1127 22.9103 45.4845 22.8887Z" fill="white"/>
<path d="M32.7076 5.70764C30.3374 5.70764 28.0152 6.19936 25.8779 7.11891H13.9889C13.6168 7.11891 13.3151 7.42051 13.3151 7.79274C13.3151 8.16496 13.6168 8.46656 13.9889 8.46656H23.3428C22.0781 9.28055 20.9138 10.2624 19.8873 11.3958C19.6375 11.6716 19.6585 12.0977 19.9343 12.3475C20.2102 12.5974 20.6362 12.5763 20.8861 12.3005C23.9051 8.96708 28.2139 7.0553 32.7076 7.0553C41.4995 7.0553 48.6523 14.208 48.6523 23C48.6523 31.7918 41.4996 38.9446 32.7076 38.9446C23.9157 38.9446 16.7629 31.7919 16.7629 23C16.7629 19.9212 17.6424 16.933 19.3061 14.3582C19.5081 14.0457 19.4184 13.6286 19.1059 13.4267C18.7933 13.2248 18.3763 13.3143 18.1742 13.6269C16.3692 16.42 15.4153 19.6611 15.4153 23C15.4153 29.0883 18.5783 34.4513 23.3471 37.5334H13.989C13.6169 37.5334 13.3152 37.835 13.3152 38.2072C13.3152 38.5794 13.6169 38.881 13.989 38.881H25.8686C27.9674 39.7883 30.2797 40.2923 32.7077 40.2923C42.2426 40.2923 50 32.535 50 23C50 13.4649 42.2426 5.70764 32.7076 5.70764Z" fill="white"/>
</g>
<defs>
<filter id="filter0_d" x="0" y="0" width="54" height="54" filterUnits="userSpaceOnUse" color-interpolation-filters="sRGB">
<feFlood flood-opacity="0" result="BackgroundImageFix"/>
<feColorMatrix in="SourceAlpha" type="matrix" values="0 0 0 0 0 0 0 0 0 0 0 0 0 0 0 0 0 0 127 0"/>
<feOffset dy="4"/>
<feGaussianBlur stdDeviation="2"/>
<feColorMatrix type="matrix" values="0 0 0 0 1 0 0 0 0 1 0 0 0 0 1 0 0 0 0.25 0"/>
<feBlend mode="normal" in2="BackgroundImageFix" result="effect1_dropShadow"/>
<feBlend mode="normal" in="SourceGraphic" in2="effect1_dropShadow" result="shape"/>
</filter>
</defs>
</svg>
