<svg width="46" height="78" viewBox="0 0 46 78" fill="none" xmlns="http://www.w3.org/2000/svg">
<path d="M1.33203 42.0436L36.043 76.7539C36.8458 77.5574 37.9175 78 39.0603 78C40.203 78 41.2747 77.5574 42.0775 76.7539L44.6337 74.1983C46.2971 72.5331 46.2971 69.8266 44.6337 68.1638L15.4861 39.0162L44.6661 9.83617C45.4689 9.03271 45.9122 7.96164 45.9122 6.81955C45.9122 5.67619 45.4689 4.60513 44.6661 3.80104L42.1098 1.24609C41.3064 0.442627 40.2353 0 39.0926 0C37.9499 0 36.8782 0.442627 36.0754 1.24609L1.33203 35.9881C0.527308 36.7941 0.0853138 37.8703 0.0878506 39.0143C0.0853138 40.1627 0.527308 41.2382 1.33203 42.0436Z" fill="white"/>
</svg>
