<svg width="52" height="53" viewBox="0 0 52 53" fill="none" xmlns="http://www.w3.org/2000/svg">
<path d="M5.98825 19.0477C6.13663 19.1961 6.33142 19.2706 6.52621 19.2706C6.72101 19.2706 6.9158 19.1965 7.06458 19.0477C7.36173 18.7505 7.36173 18.2685 7.06458 17.9714L5.21661 16.1234L7.06458 14.2758C7.36173 13.9783 7.36173 13.4966 7.06458 13.1995C6.76743 12.9023 6.2854 12.9023 5.98825 13.1995L3.60231 15.5854C3.45949 15.7282 3.37935 15.9218 3.37935 16.1234C3.37935 16.3253 3.45949 16.5189 3.60231 16.6618L5.98825 19.0477Z" fill="white"/>
<path d="M13.5404 16.1234L11.6924 17.9714C11.3953 18.2685 11.3953 18.7505 11.6928 19.0477C11.8412 19.1961 12.036 19.2706 12.2308 19.2706C12.4256 19.2706 12.6204 19.1961 12.7688 19.0477L15.1551 16.6614C15.4522 16.3642 15.4522 15.8822 15.1551 15.5854L12.7688 13.1991C12.4716 12.9019 11.99 12.9019 11.6928 13.1991C11.3953 13.4966 11.3953 13.9783 11.6928 14.2754L13.5404 16.1234Z" fill="white"/>
<path d="M8.24405 19.2179C8.3353 19.2536 8.42972 19.2707 8.52216 19.2707C8.82605 19.2707 9.11289 19.0874 9.23072 18.7879L11.1053 14.0156C11.2592 13.6244 11.0664 13.1828 10.6752 13.0289C10.2844 12.8754 9.84248 13.0678 9.68894 13.459L7.81399 18.2312C7.66046 18.6224 7.85287 19.0644 8.24405 19.2179Z" fill="white"/>
<path d="M4.57112 23.7355H9.69807C10.1182 23.7355 10.459 23.3947 10.459 22.9741C10.459 22.554 10.1182 22.2132 9.69807 22.2132H4.57112C4.15059 22.2132 3.8102 22.554 3.8102 22.9741C3.8102 23.3947 4.15059 23.7355 4.57112 23.7355Z" fill="white"/>
<path d="M21.5063 22.2132H12.4926C12.0725 22.2132 11.7317 22.554 11.7317 22.9741C11.7317 23.3947 12.0725 23.7355 12.4926 23.7355H21.5063C21.9269 23.7355 22.2677 23.3947 22.2677 22.9741C22.2677 22.554 21.9269 22.2132 21.5063 22.2132Z" fill="white"/>
<path d="M4.57112 26.9454H6.75512C7.17526 26.9454 7.51605 26.6046 7.51605 26.1841C7.51605 25.764 7.17526 25.4232 6.75512 25.4232H4.57112C4.15059 25.4232 3.8102 25.764 3.8102 26.1841C3.8102 26.6046 4.15059 26.9454 4.57112 26.9454Z" fill="white"/>
<path d="M18.7221 25.4232C18.3016 25.4232 17.9612 25.764 17.9612 26.1841C17.9612 26.6046 18.3016 26.9454 18.7221 26.9454H20.0519C20.4725 26.9454 20.8133 26.6046 20.8133 26.1841C20.8133 25.764 20.4725 25.4232 20.0519 25.4232H18.7221Z" fill="white"/>
<path d="M16.719 26.1841C16.719 25.764 16.3782 25.4232 15.9581 25.4232H9.42551C9.00498 25.4232 8.66458 25.764 8.66458 26.1841C8.66458 26.6046 9.00498 26.9454 9.42551 26.9454H15.9581C16.3782 26.9454 16.719 26.6046 16.719 26.1841Z" fill="white"/>
<path d="M21.7043 26.1841C21.7043 26.6046 22.0451 26.9454 22.4652 26.9454H24.9563C25.3768 26.9454 25.7176 26.6046 25.7176 26.1841C25.7176 25.764 25.3768 25.4232 24.9563 25.4232H22.4652C22.0451 25.4232 21.7043 25.764 21.7043 26.1841Z" fill="white"/>
<path d="M17.5597 16.734H20.1872C20.6077 16.734 20.9485 16.3932 20.9485 15.9726C20.9485 15.5525 20.6077 15.2117 20.1872 15.2117H17.5597C17.1391 15.2117 16.7983 15.5525 16.7983 15.9726C16.7983 16.3932 17.1391 16.734 17.5597 16.734Z" fill="white"/>
<path d="M23.1302 16.734H39.1624C39.583 16.734 39.9234 16.3932 39.9234 15.9726C39.9234 15.5525 39.583 15.2117 39.1624 15.2117H23.1302C22.7096 15.2117 22.3688 15.5525 22.3688 15.9726C22.3688 16.3932 22.7096 16.734 23.1302 16.734Z" fill="white"/>
<path d="M36.7273 18.5601H30.2328C29.8127 18.5601 29.4719 18.9009 29.4719 19.3214C29.4719 19.7416 29.8127 20.0824 30.2328 20.0824H36.7273C37.1474 20.0824 37.4882 19.7416 37.4882 19.3214C37.4882 18.9009 37.1474 18.5601 36.7273 18.5601Z" fill="white"/>
<path d="M27.7977 18.5601H25.5653C25.1447 18.5601 24.8044 18.9009 24.8044 19.3214C24.8044 19.7416 25.1447 20.0824 25.5653 20.0824H27.7977C28.2182 20.0824 28.5586 19.7416 28.5586 19.3214C28.5586 18.9009 28.2182 18.5601 27.7977 18.5601Z" fill="white"/>
<path d="M17.5597 20.0824H23.0286C23.4487 20.0824 23.7895 19.7416 23.7895 19.3214C23.7895 18.9009 23.4487 18.5601 23.0286 18.5601H17.5597C17.1391 18.5601 16.7983 18.9009 16.7983 19.3214C16.7983 19.7416 17.1391 20.0824 17.5597 20.0824Z" fill="white"/>
<path d="M15.9676 28.6061H10.8411C10.4205 28.6061 10.0797 28.9469 10.0797 29.367C10.0797 29.7872 10.4205 30.128 10.8411 30.128H15.9676C16.3877 30.128 16.7285 29.7872 16.7285 29.367C16.7285 28.9469 16.3877 28.6061 15.9676 28.6061Z" fill="white"/>
<path d="M8.50986 28.6061H4.57112C4.15059 28.6061 3.8102 28.9469 3.8102 29.367C3.8102 29.7872 4.15059 30.128 4.57112 30.128H8.50986C8.93039 30.128 9.27079 29.7872 9.27079 29.367C9.27079 28.9469 8.93039 28.6061 8.50986 28.6061Z" fill="white"/>
<path d="M25.261 28.6061H18.5638C18.1433 28.6061 17.8029 28.9469 17.8029 29.367C17.8029 29.7872 18.1433 30.128 18.5638 30.128H25.261C25.6811 30.128 26.0219 29.7872 26.0219 29.367C26.0219 28.9469 25.6811 28.6061 25.261 28.6061Z" fill="white"/>
<path d="M34.3179 24.6967H30.6557C30.2356 24.6967 29.8948 25.0375 29.8948 25.4576C29.8948 25.8782 30.2356 26.219 30.6557 26.219H34.3179C34.7385 26.219 35.0789 25.8782 35.0789 25.4576C35.0789 25.0375 34.7385 24.6967 34.3179 24.6967Z" fill="white"/>
<path d="M40.6728 26.219H45.8426C46.2631 26.219 46.6039 25.8782 46.6039 25.4576C46.6039 25.0375 46.2631 24.6967 45.8426 24.6967H40.6728C40.2522 24.6967 39.9118 25.0375 39.9118 25.4576C39.9118 25.8782 40.2526 26.219 40.6728 26.219Z" fill="white"/>
<path d="M38.0877 24.6967H36.903C36.4825 24.6967 36.1417 25.0375 36.1417 25.4576C36.1417 25.8782 36.4825 26.219 36.903 26.219H38.0877C38.5082 26.219 38.8486 25.8782 38.8486 25.4576C38.8486 25.0375 38.5082 24.6967 38.0877 24.6967Z" fill="white"/>
<path d="M30.6557 34.5122H34.3179C34.7385 34.5122 35.0789 34.1718 35.0789 33.7513C35.0789 33.3311 34.7385 32.9904 34.3179 32.9904H30.6557C30.2356 32.9904 29.8948 33.3311 29.8948 33.7513C29.8948 34.1718 30.2356 34.5122 30.6557 34.5122Z" fill="white"/>
<path d="M40.6728 34.5122H45.8426C46.2631 34.5122 46.6039 34.1718 46.6039 33.7513C46.6039 33.3311 46.2631 32.9904 45.8426 32.9904H40.6728C40.2522 32.9904 39.9118 33.3311 39.9118 33.7513C39.9118 34.1718 40.2526 34.5122 40.6728 34.5122Z" fill="white"/>
<path d="M36.903 34.5122H38.0877C38.5082 34.5122 38.849 34.1718 38.849 33.7513C38.849 33.3311 38.5082 32.9904 38.0877 32.9904H36.903C36.4825 32.9904 36.1421 33.3311 36.1421 33.7513C36.1421 34.1718 36.4825 34.5122 36.903 34.5122Z" fill="white"/>
<path d="M34.3179 41.284H30.6557C30.2356 41.284 29.8948 41.6248 29.8948 42.0449C29.8948 42.4651 30.2356 42.8059 30.6557 42.8059H34.3179C34.7385 42.8059 35.0789 42.4651 35.0789 42.0449C35.0789 41.6248 34.7385 41.284 34.3179 41.284Z" fill="white"/>
<path d="M45.8426 41.284H40.6728C40.2522 41.284 39.9118 41.6248 39.9118 42.0449C39.9118 42.4651 40.2522 42.8059 40.6728 42.8059H45.8426C46.2631 42.8059 46.6039 42.4651 46.6039 42.0449C46.6039 41.6248 46.2631 41.284 45.8426 41.284Z" fill="white"/>
<path d="M38.0877 41.284H36.903C36.4825 41.284 36.1417 41.6248 36.1417 42.0449C36.1417 42.4651 36.4825 42.8059 36.903 42.8059H38.0877C38.5082 42.8059 38.8486 42.4651 38.8486 42.0449C38.8486 41.6248 38.5082 41.284 38.0877 41.284Z" fill="white"/>
<path d="M48.651 0.10144H3.34959C1.50281 0.10144 0 1.60386 0 3.45103V40.2743C0 42.1211 1.50281 43.6235 3.34959 43.6235H6.21359C6.63372 43.6235 6.97452 43.2831 6.97452 42.8626C6.97452 42.4425 6.63372 42.1017 6.21359 42.1017H3.34959C2.3419 42.1017 1.52225 41.282 1.52225 40.2743V37.3873H29.2485V38.6989H28.6451C27.8195 38.6989 27.1482 39.3702 27.1482 40.1958V42.1017H10.8407C10.4205 42.1017 10.0797 42.4425 10.0797 42.8626C10.0797 43.2831 10.4205 43.6235 10.8407 43.6235H18.1579V46.353H15.8601C14.3271 46.353 13.0802 47.6004 13.0802 49.1329V50.777C13.0802 51.4764 13.6491 52.0453 14.3485 52.0453H37.5938C38.2932 52.0453 38.8621 51.4764 38.8621 50.777V49.1329C38.8621 47.6004 37.6152 46.353 36.0822 46.353H33.7843V45.391H47.8536C48.6788 45.391 49.3501 44.7197 49.3501 43.8941V43.5359C50.8334 43.1915 51.9423 41.8605 51.9423 40.2743L51.9998 3.45064C52.0002 1.60386 50.4978 0.10144 48.651 0.10144ZM28.6705 35.5755V31.9275H47.8282V35.5755H28.6705ZM30.7704 30.4053V28.8041H45.7279V30.4053H30.7704ZM45.7279 37.0973V38.6989H30.7704V37.0973H45.7279ZM19.6798 43.6235H27.1482V43.8945C27.1482 44.7197 27.8195 45.391 28.6451 45.391H32.2625V46.353H19.6798V43.6235ZM36.0826 47.8753C36.7761 47.8753 37.3402 48.4395 37.3402 49.1329V50.5235H14.602V49.1329C14.602 48.4395 15.1666 47.8753 15.8601 47.8753H36.0826ZM47.8282 43.8687H28.6705V40.2212H47.8282V43.8687ZM50.4204 40.2743C50.4204 41.0115 49.9809 41.6466 49.3504 41.9351V40.1954C49.3504 39.3702 48.6788 38.6989 47.8536 38.6989H47.2502V37.3873H50.4204V40.2743ZM50.4204 35.8655H49.3255C49.3409 35.7794 49.3504 31.9021 49.3504 31.9021C49.3504 31.0766 48.6788 30.4053 47.8536 30.4053H47.2502V28.8041H47.8536C48.6788 28.8041 49.3504 28.1324 49.3504 27.3072V23.6085C49.3504 22.7833 48.6788 22.1116 47.8536 22.1116H43.555C43.1345 22.1116 42.7941 22.4524 42.7941 22.873C42.7941 23.2931 43.1345 23.6339 43.555 23.6339H47.8282V27.2818H28.6705V23.6339H38.8196C39.2402 23.6339 39.5806 23.2931 39.5806 22.873C39.5806 22.4524 39.2402 22.1116 38.8196 22.1116H28.6451C27.8195 22.1116 27.1482 22.7833 27.1482 23.6085V27.3072C27.1482 28.1324 27.8195 28.8041 28.6451 28.8041H29.2485V30.4053H28.6451C27.8195 30.4053 27.1482 31.0769 27.1482 31.9021C27.1482 31.9021 27.1578 35.7794 27.1732 35.8655H1.52225V10.4537H50.4204V35.8655ZM50.4204 8.93147H1.57819V3.45064C1.57819 2.44334 2.39784 1.62369 3.40553 1.62369H48.5931C49.6008 1.62369 50.4204 2.44334 50.4204 3.45103V8.93147Z" fill="white"/>
<path d="M5.61254 3.02258C4.38109 3.02258 3.37935 4.02433 3.37935 5.25578C3.37935 6.48723 4.38109 7.48937 5.61254 7.48937C6.84399 7.48937 7.84613 6.48723 7.84613 5.25578C7.84613 4.02433 6.84399 3.02258 5.61254 3.02258ZM5.61254 5.96712C5.22057 5.96712 4.90121 5.64814 4.90121 5.25578C4.90121 4.86381 5.22057 4.54444 5.61254 4.54444C6.00491 4.54444 6.32388 4.86381 6.32388 5.25578C6.32388 5.64814 6.00491 5.96712 5.61254 5.96712Z" fill="white"/>
<path d="M11.2989 3.02258C10.0674 3.02258 9.06528 4.02433 9.06528 5.25578C9.06528 6.48723 10.0674 7.48937 11.2989 7.48937C12.5303 7.48937 13.5321 6.48723 13.5321 5.25578C13.5321 4.02433 12.5299 3.02258 11.2989 3.02258ZM11.2989 5.96712C10.9065 5.96712 10.5875 5.64814 10.5875 5.25578C10.5875 4.86381 10.9065 4.54444 11.2989 4.54444C11.6908 4.54444 12.0102 4.86381 12.0102 5.25578C12.0102 5.64814 11.6908 5.96712 11.2989 5.96712Z" fill="white"/>
<path d="M16.9848 3.02258C15.7534 3.02258 14.7516 4.02433 14.7516 5.25578C14.7516 6.48723 15.7534 7.48937 16.9848 7.48937C18.2163 7.48937 19.2184 6.48723 19.2184 5.25578C19.2184 4.02433 18.2163 3.02258 16.9848 3.02258ZM16.9848 5.96712C16.5928 5.96712 16.2735 5.64814 16.2735 5.25578C16.2735 4.86381 16.5928 4.54444 16.9848 4.54444C17.3772 4.54444 17.6961 4.86381 17.6961 5.25578C17.6961 5.64814 17.3772 5.96712 16.9848 5.96712Z" fill="white"/>
</svg>
