<svg width="46" height="40" viewBox="0 0 46 40" fill="none" xmlns="http://www.w3.org/2000/svg">
<path d="M45.9354 22.6042C45.9353 22.6039 45.9353 22.6038 45.9352 22.6036L37.2502 0.796339C37.0659 0.332991 36.5407 0.106792 36.0774 0.291115C36.077 0.291228 36.0767 0.291341 36.0763 0.291567L0.842492 14.3214C0.698803 14.3834 0.57419 14.4825 0.481295 14.6085C0.188274 14.7608 0.00316047 15.0621 0 15.3923V38.8701C0 39.3688 0.404315 39.7731 0.902992 39.7731H38.8287C39.3273 39.7731 39.7317 39.3688 39.7317 38.8701V26.0476L45.4313 23.7775C45.8946 23.5927 46.1202 23.0674 45.9354 22.6042ZM37.9257 37.9671H1.80598V16.2953H37.9257V37.9671ZM15.0664 14.4938L30.1861 8.46906C31.5355 9.88744 33.4053 10.6936 35.363 10.7013L36.871 14.4938H15.0664ZM39.7317 24.108V15.3923C39.7317 14.8936 39.3273 14.4893 38.8287 14.4893H38.8142L36.9008 9.68359C36.8796 9.64352 36.8548 9.60537 36.8267 9.56981C36.7299 9.13491 36.3271 8.83816 35.8831 8.87451C34.0615 9.04054 32.2796 8.27323 31.1487 6.83555C30.8673 6.48824 30.3727 6.40189 29.9902 6.63328C29.9473 6.63836 29.9047 6.64626 29.8629 6.65676L11.4039 14.0071C11.1805 14.0947 11.0018 14.2684 10.9081 14.4893H5.30237L35.9066 2.30343L43.9242 22.4356L39.7317 24.108Z" fill="white"/>
<path d="M4.25671 31.871C6.00986 32.3892 7.38174 33.7594 7.90208 35.5119C8.0162 35.8944 8.36803 36.1565 8.76715 36.1566C8.81399 36.1537 8.8605 36.1467 8.90621 36.1359C8.94673 36.1474 8.98816 36.1558 9.02992 36.1612H30.7017C30.739 36.1563 30.7758 36.1487 30.8119 36.1386C31.2631 36.2483 31.7177 35.9716 31.8275 35.5205C31.8279 35.5188 31.8283 35.5172 31.8287 35.5155C32.3477 33.7612 33.7198 32.3891 35.474 31.8701C35.8995 31.7401 36.1638 31.3162 36.0935 30.8768C36.1056 30.833 36.1143 30.7884 36.1197 30.7432V23.5193C36.1144 23.474 36.1054 23.4293 36.0926 23.3856C36.1634 22.9462 35.8989 22.522 35.4731 22.3923C33.7189 21.8735 32.3471 20.5008 31.8296 18.7461C31.6989 18.3177 31.2707 18.0527 30.8291 18.1266C30.7873 18.115 30.7447 18.1065 30.7017 18.1013H9.02992C8.98443 18.1067 8.9394 18.1158 8.89538 18.1284C8.45618 18.0584 8.03245 18.3227 7.90208 18.7479C7.38275 20.5018 6.01077 21.8735 4.25671 22.3923C3.83128 22.5224 3.56693 22.9463 3.63725 23.3856C3.62551 23.4295 3.61705 23.4741 3.61197 23.5193V30.7432C3.61716 30.7856 3.62563 30.8276 3.63725 30.8687C3.56321 31.3108 3.82812 31.7395 4.25671 31.871ZM5.41795 23.8859C7.23116 23.1576 8.66827 21.7205 9.39654 19.9073H30.3342C31.0628 21.7205 32.5003 23.1576 34.3137 23.8859V30.3766C32.5011 31.1056 31.0642 32.5425 30.3351 34.3552H9.39654C8.66748 32.5425 7.2306 31.1056 5.41795 30.3766V23.8859Z" fill="white"/>
<path d="M19.8658 32.5492C22.8581 32.5492 25.2838 30.1235 25.2838 27.1312C25.2838 24.1389 22.8581 21.7133 19.8658 21.7133C16.8735 21.7133 14.4479 24.1389 14.4479 27.1312C14.4508 30.1223 16.8748 32.5462 19.8658 32.5492ZM19.8658 23.5192C21.8607 23.5192 23.4778 25.1364 23.4778 27.1312C23.4778 29.126 21.8607 30.7432 19.8658 30.7432C17.871 30.7432 16.2539 29.126 16.2539 27.1312C16.2539 25.1364 17.871 23.5192 19.8658 23.5192Z" fill="white"/>
<path d="M9.93291 28.4857C10.6809 28.4857 11.2874 27.8792 11.2874 27.1312C11.2874 26.3832 10.6809 25.7767 9.93291 25.7767C9.18489 25.7767 8.57842 26.3832 8.57842 27.1312C8.57842 27.8794 9.18489 28.4857 9.93291 28.4857ZM9.93291 26.6797C10.1822 26.6797 10.3844 26.8819 10.3844 27.1312C10.3844 27.3806 10.1822 27.5827 9.93291 27.5827C9.68357 27.5827 9.48141 27.3806 9.48141 27.1312C9.48141 26.8819 9.68357 26.6797 9.93291 26.6797Z" fill="white"/>
<path d="M29.7987 28.4857C30.5468 28.4857 31.1532 27.8792 31.1532 27.1312C31.1532 26.3832 30.5468 25.7767 29.7987 25.7767C29.0507 25.7767 28.4442 26.3832 28.4442 27.1312C28.4442 27.8794 29.0507 28.4857 29.7987 28.4857ZM29.7987 26.6797C30.0481 26.6797 30.2502 26.8819 30.2502 27.1312C30.2502 27.3806 30.0481 27.5827 29.7987 27.5827C29.5494 27.5827 29.3472 27.3806 29.3472 27.1312C29.3472 26.8819 29.5494 26.6797 29.7987 26.6797Z" fill="white"/>
</svg>
