<svg width="54" height="54" viewBox="0 0 54 54" fill="none" xmlns="http://www.w3.org/2000/svg">
<g clip-path="url(#clip0)" filter="url(#filter0_d)">
<path d="M47.4226 0.898438H44.6992C43.8559 0.898438 43.8176 2.24609 44.6992 2.24609H47.4226C48.1006 2.24609 48.6523 2.79782 48.6523 3.47587V20.376H25.5008V16.1559C25.5008 15.3918 24.8791 14.7701 24.115 14.7701H11.7481V3.47587C11.7481 2.79782 12.2999 2.24609 12.9779 2.24609H40.8359C41.6792 2.24609 41.7176 0.898438 40.8359 0.898438H12.9779C11.5567 0.898438 10.4005 2.05473 10.4005 3.47587V14.7702H5.38575C4.62163 14.7702 4 15.3919 4 16.156V40.3915C4 41.1557 4.62163 41.7773 5.38575 41.7773H19.4606V43.0852C19.4606 43.9767 20.0486 44.7344 20.8609 44.9999C20.8715 45.0035 20.8819 45.0073 20.8927 45.0106C20.8964 45.0118 20.9001 45.0127 20.9037 45.0138C21.0909 45.0707 21.2893 45.1017 21.4948 45.1017H28.8512C29.0556 45.1017 29.2529 45.071 29.4393 45.0147C29.444 45.0132 29.4489 45.0121 29.4536 45.0106C29.4632 45.0076 29.4726 45.0041 29.4821 45.001C30.296 44.7364 30.8855 43.9779 30.8855 43.0853V32.935H38.7853C39.6286 32.935 39.667 31.5874 38.7853 31.5874H36.0156L35.0859 27.5414H47.4225C48.8263 27.5414 49.9999 26.3712 49.9999 24.964V3.47587C50 2.05464 48.8438 0.898438 47.4226 0.898438ZM48.6523 21.7237V24.9626C48.6523 25.6375 48.0971 26.1937 47.4239 26.1937H30.8809C30.8139 25.1322 29.9294 24.289 28.8512 24.289H25.5008V21.7237H48.6523ZM28.8512 25.6367C29.2298 25.6367 29.5378 25.9447 29.5378 26.3232V40.8698H20.8082V26.3232C20.8082 25.9447 21.1162 25.6366 21.4948 25.6366H28.8512V25.6367ZM5.34766 40.3916C5.38575 40.3532 5.27461 16.1097 5.38566 16.118C5.38575 16.1179 24.115 16.1179 24.115 16.1179C24.1361 16.1179 24.1531 16.1349 24.1531 16.156V24.2891H23.0273V17.9088C23.0273 17.5367 22.7256 17.235 22.3535 17.235H7.14732C6.77518 17.235 6.47349 17.5367 6.47349 17.9088V29.0195C6.47349 29.8627 7.82114 29.9012 7.82114 29.0195V18.5827H21.6796V24.2891C20.5127 24.2399 19.4606 25.1154 19.4606 26.3233V36.1077H7.82114V32.7464C7.82114 31.9032 6.47349 31.8648 6.47349 32.7464V36.7815C6.47349 37.1536 6.77518 37.4553 7.14732 37.4553H19.4606V40.4297C19.4223 40.3918 5.33957 40.5023 5.34766 40.3916ZM21.4987 43.7539C21.4285 43.7539 21.3609 43.7437 21.2971 43.7247C21.2957 43.7243 21.2943 43.7239 21.2929 43.7235C21.2895 43.7225 21.2862 43.7213 21.2828 43.7202C21.0078 43.6306 20.8083 43.3719 20.8083 43.0674V42.2175H29.5379V43.0674C29.5379 43.372 29.3385 43.6306 29.0634 43.7203C29.06 43.7214 29.0567 43.7226 29.0533 43.7236C29.0519 43.7241 29.0504 43.7244 29.049 43.7249C28.9852 43.7438 28.9175 43.754 28.8475 43.754H21.4987V43.7539ZM34.6329 31.5874H30.8855V27.5414H33.7032L34.6329 31.5874Z" fill="white"/>
<path d="M15.4515 38.2549H14.0494C13.1572 38.2858 13.1579 39.5719 14.0494 39.6025H15.4515C16.3437 39.5716 16.343 38.2855 15.4515 38.2549Z" fill="white"/>
<path d="M24.5791 27.6713H25.7671C26.6593 27.6404 26.6586 26.3542 25.7671 26.3236H24.5791C23.6869 26.3545 23.6875 27.6406 24.5791 27.6713Z" fill="white"/>
</g>
<defs>
<filter id="filter0_d" x="0" y="0" width="54" height="54" filterUnits="userSpaceOnUse" color-interpolation-filters="sRGB">
<feFlood flood-opacity="0" result="BackgroundImageFix"/>
<feColorMatrix in="SourceAlpha" type="matrix" values="0 0 0 0 0 0 0 0 0 0 0 0 0 0 0 0 0 0 127 0"/>
<feOffset dy="4"/>
<feGaussianBlur stdDeviation="2"/>
<feColorMatrix type="matrix" values="0 0 0 0 1 0 0 0 0 1 0 0 0 0 1 0 0 0 0.25 0"/>
<feBlend mode="normal" in2="BackgroundImageFix" result="effect1_dropShadow"/>
<feBlend mode="normal" in="SourceGraphic" in2="effect1_dropShadow" result="shape"/>
</filter>
<clipPath id="clip0">
<rect width="46" height="46" fill="white" transform="translate(4)"/>
</clipPath>
</defs>
</svg>
