<svg height="480pt" viewBox="0 -24 480 480" width="480pt" xmlns="http://www.w3.org/2000/svg"><path d="m32 64h16v16h-16zm0 0"/><path d="m64 64h16v16h-16zm0 0"/><path d="m96 64h16v16h-16zm0 0"/><path d="m136 64h280v16h-280zm0 0"/><path d="m456 0h-400c-13.601562 0-24 10.398438-24 24v8h-8c-13.601562 0-24 10.398438-24 24v352c0 13.601562 10.398438 24 24 24h400c13.601562 0 24-10.398438 24-24v-24h8c13.601562 0 24-10.398438 24-24v-336c0-13.601562-10.398438-24-24-24zm-408 24c0-4.800781 3.199219-8 8-8h400c4.800781 0 8 3.199219 8 8v24h-17.601562c-3.199219-9.601562-12-16-22.398438-16h-376zm-24 24h400c4.800781 0 8 3.199219 8 8v40h-416v-40c0-4.800781 3.199219-8 8-8zm400 368h-400c-4.800781 0-8-3.199219-8-8v-296h416v296c0 4.800781-3.199219 8-8 8zm32-48h-8v-304h16v296c0 4.800781-3.199219 8-8 8zm0 0"/><path d="m56 392h336v-48h-336zm320-16h-40v-16h40zm-304-16h248v16h-248zm0 0"/><path d="m224 304c48.800781 0 88-39.199219 88-88s-39.199219-88-88-88-88 39.199219-88 88 39.199219 88 88 88zm-60-48c-3.199219-4.800781-5.601562-10.398438-8-16h28c4.800781 0 8 3.199219 8 8s-3.199219 8-8 8zm113.601562 8h-29.601562c-4.800781 0-8-3.199219-8-8s3.199219-8 8-8c13.601562 0 24-10.398438 24-24v-8c0-4.800781 3.199219-8 8-8h15.199219c2.402343 20-4 40.800781-17.597657 56zm14.398438-72h-12c-13.601562 0-24 10.398438-24 24v8c0 4.800781-3.199219 8-8 8-13.601562 0-24 10.398438-24 24s10.398438 24 24 24h8.800781c-25.601562 12.800781-56 9.601562-77.601562-8h4.800781c13.601562 0 24-10.398438 24-24s-10.398438-24-24-24h-31.199219c-.800781-5.601562-.800781-10.398438 0-16h59.199219c15.199219 0 28-12.800781 28-28s-12.800781-28-28-28h-20.800781c35.199219-18.398438 78.402343-4 96.800781 31.199219 1.601562 2.402343 2.398438 5.601562 4 8.800781zm-121.601562-24h41.601562c6.398438 0 12 5.601562 12 12s-5.601562 12-12 12h-56c3.199219-8.800781 8-16.800781 14.398438-24zm0 0"/><path d="m104 280h16v16h-16zm0 0"/><path d="m104 312h16v16h-16zm0 0"/><path d="m120 296h16v16h-16zm0 0"/><path d="m88 296h16v16h-16zm0 0"/><path d="m328 256h16v16h-16zm0 0"/><path d="m328 288h16v16h-16zm0 0"/><path d="m344 272h16v16h-16zm0 0"/><path d="m312 272h16v16h-16zm0 0"/><path d="m336 144h16v16h-16zm0 0"/><path d="m336 176h16v16h-16zm0 0"/><path d="m352 160h16v16h-16zm0 0"/><path d="m320 160h16v16h-16zm0 0"/></svg>