<svg width="46" height="78" viewBox="0 0 46 78" fill="none" xmlns="http://www.w3.org/2000/svg">
<path d="M44.668 35.9564L9.95703 1.24609C9.15421 0.442631 8.08251 0 6.93979 0C5.79706 0 4.72537 0.442631 3.92254 1.24609L1.36632 3.80168C-0.297033 5.46693 -0.297033 8.17345 1.36632 9.83616L30.514 38.9838L1.33398 68.1638C0.531155 68.9673 0.0878906 70.0384 0.0878906 71.1805C0.0878906 72.3238 0.531155 73.3949 1.33398 74.199L3.8902 76.7539C4.69366 77.5574 5.76472 78 6.90745 78C8.05017 78 9.12187 77.5574 9.92469 76.7539L44.668 42.0119C45.4727 41.2059 45.9147 40.1297 45.9122 38.9857C45.9147 37.8373 45.4727 36.7618 44.668 35.9564Z" fill="white"/>
</svg>
