<svg width="46" height="46" viewBox="0 0 46 46" fill="none" xmlns="http://www.w3.org/2000/svg">
<path d="M22.9198 5.84523C23.4195 5.84523 23.8246 5.44013 23.8246 4.94042V0.904816C23.8246 0.405106 23.4195 0 22.9198 0C22.4201 0 22.015 0.405106 22.015 0.904816V4.94042C22.015 5.44013 22.4201 5.84523 22.9198 5.84523Z" fill="white"/>
<path d="M45.0369 31.0846L43.4385 29.4907C42.8698 28.9228 42.112 28.6099 41.3045 28.6099C40.7882 28.6099 40.2925 28.7384 39.8533 28.9791L36.8412 25.9706L36.9879 25.8241C38.2098 24.5997 38.2094 22.6101 36.9878 21.3898C36.5512 20.9525 36.0065 20.6608 35.4127 20.5381C35.4945 20.2559 35.5375 19.9603 35.5375 19.6578C35.5375 18.8173 35.211 18.0292 34.62 17.4407C34.1834 17.0033 33.6388 16.7117 33.045 16.5889C33.1267 16.3067 33.1698 16.0112 33.1698 15.7087C33.1698 14.8681 32.8433 14.0801 32.2513 13.4906C31.8042 13.0441 31.2547 12.7614 30.6776 12.6411C30.9863 11.5767 30.7225 10.3792 29.8852 9.54043C29.1882 8.84639 28.2424 8.54811 27.3309 8.64478L21.3622 7.51499C20.4519 7.34231 19.3151 7.22812 18.5975 7.88263C18.5522 7.92396 18.506 7.97149 18.4606 8.02441C17.3479 7.61885 16.0502 7.86035 15.1592 8.75035C14.5682 9.34071 14.2426 10.1285 14.2426 10.9685C14.2426 11.2711 14.2854 11.5666 14.3671 11.8489C13.7739 11.9715 13.2299 12.2628 12.7948 12.6987C12.2026 13.2885 11.876 14.0754 11.8754 14.9144C11.8751 15.2177 11.9181 15.5142 12.0003 15.7972C11.4068 15.9196 10.8625 16.2103 10.426 16.6463C9.83376 17.2379 9.50763 18.0261 9.50763 18.8657C9.50763 19.5088 9.69962 20.1214 10.0554 20.6389C9.60619 20.7912 9.1947 21.0447 8.85015 21.3888C7.62738 22.6101 7.62693 24.5998 8.85096 25.826L8.99714 25.9715L5.98467 28.9785C4.86513 28.4514 3.48576 28.6489 2.5619 29.5715L0.962498 31.1665C0.393607 31.7346 0.0804121 32.4925 0.0803223 33.3005C0.0803223 34.1086 0.393607 34.8666 0.962498 35.4348L2.95856 37.4285C3.31209 37.7816 3.88503 37.7813 4.23811 37.4278C4.59129 37.0742 4.59093 36.5013 4.23739 36.1482L2.24133 34.1546C2.01475 33.9282 1.88996 33.6249 1.88996 33.3006C1.88996 32.9764 2.01475 32.6731 2.24079 32.4474L3.84028 30.8524C4.23991 30.4532 4.85156 30.3937 5.31606 30.6714C5.34876 30.7206 5.38658 30.7673 5.42989 30.8107C5.50742 30.8884 5.59592 30.948 5.6899 30.9915L14.8623 40.1505C14.9059 40.2454 14.9657 40.3348 15.0438 40.413C15.1198 40.4891 15.2065 40.5479 15.2985 40.5912C15.4925 40.8106 15.5997 41.0907 15.5997 41.3895C15.5997 41.7138 15.4749 42.0171 15.2483 42.2434L13.6504 43.8394C13.1783 44.3094 12.4103 44.3093 11.9396 43.8408L9.94355 41.8446C9.59019 41.4912 9.01735 41.4912 8.66399 41.8446C8.31064 42.1979 8.31064 42.7708 8.66399 43.1241L10.6615 45.1218C11.2494 45.7073 12.0215 45.9999 12.794 45.9999C13.5667 45.9999 14.3397 45.7069 14.9283 45.1208L16.5272 43.5238C17.0961 42.9556 17.4094 42.1976 17.4094 41.3895C17.4094 40.8128 17.249 40.2621 16.9508 39.7871L20.3412 36.4009C20.3448 36.3972 20.3484 36.3936 20.352 36.3899C20.7403 35.9885 21.8213 36.0637 22.8669 36.1362C23.6097 36.1879 24.4379 36.2453 25.247 36.1521L28.9597 39.8604C28.7192 40.2989 28.5908 40.7939 28.5908 41.3095C28.5908 42.1167 28.9041 42.8742 29.473 43.4424L31.0719 45.0394C31.6405 45.6073 32.3983 45.9201 33.2058 45.9201C34.0132 45.9201 34.7711 45.6074 35.3397 45.0394L45.0375 35.3533C45.6064 34.7852 45.9197 34.0273 45.9197 33.2192C45.9196 32.4112 45.6063 31.6533 45.0369 31.0846ZM21.0252 9.293L24.9502 10.0359L22.6009 12.3843C22.2375 12.2097 21.7394 11.8839 21.193 11.3612C20.445 10.6457 19.91 9.81958 19.8613 9.30432C19.8612 9.30405 19.8612 9.30378 19.8612 9.30351C19.8612 9.30342 19.8611 9.30333 19.8611 9.30324C19.8576 9.26623 19.8567 9.23667 19.8572 9.21412C19.9755 9.18537 20.2898 9.15347 21.0252 9.293ZM16.438 10.0307C16.8964 9.57278 17.6085 9.51995 18.1264 9.8707C18.4199 11.1014 19.4698 12.2168 19.9421 12.6687C20.2921 13.0036 21.4152 14.0078 22.5489 14.2838C22.7023 14.5037 22.7857 14.7657 22.7857 15.0423C22.7857 15.3985 22.6487 15.7316 22.399 15.981C22.1501 16.2304 21.8165 16.3677 21.4596 16.3677C21.1027 16.3677 20.7691 16.2304 20.519 15.9798L20.5189 15.9797L20.5184 15.9793L16.4379 11.9061C16.1891 11.6577 16.0521 11.3246 16.0521 10.9685C16.0522 10.6123 16.1892 10.2792 16.438 10.0307ZM14.0737 13.9791C14.3226 13.7298 14.6559 13.5924 15.0122 13.5924C15.3689 13.5924 15.7033 13.73 15.9538 13.9803L19.2396 17.2595C19.757 17.7778 19.757 18.621 19.2414 19.1375C18.9911 19.3868 18.6563 19.524 18.2988 19.524C17.9413 19.524 17.6066 19.3868 17.3574 19.1385L17.3573 19.1384L14.8646 16.6463C14.8607 16.6424 14.8565 16.6388 14.8525 16.6349L14.0727 15.8554C13.8225 15.6054 13.6847 15.2717 13.685 14.9158C13.6854 14.561 13.8226 14.229 14.0737 13.9791ZM11.7048 17.9266C11.954 17.6778 12.2879 17.5408 12.6453 17.5408C12.9998 17.5408 13.3308 17.6759 13.5789 17.9203L16.0792 20.4195C16.3286 20.6678 16.4659 21.0005 16.4659 21.3563C16.4659 21.712 16.3286 22.0447 16.0783 22.294C15.8292 22.5427 15.4956 22.6797 15.1389 22.6797C14.7815 22.6797 14.4469 22.5423 14.1975 22.294L13.291 21.3887C13.2909 21.3884 13.2906 21.3882 13.2904 21.388L11.7049 19.8045C11.455 19.5548 11.3174 19.2213 11.3174 18.8655C11.3174 18.5098 11.455 18.1762 11.7048 17.9266ZM10.129 22.6691C10.3792 22.4192 10.7136 22.2815 11.0705 22.2815C11.4274 22.2815 11.7617 22.4191 12.0118 22.6688L12.9195 23.5755C13.1689 23.8238 13.3062 24.1565 13.3062 24.5123C13.3062 24.868 13.1689 25.2006 12.9176 25.451C12.6687 25.7003 12.3351 25.8376 11.9782 25.8376C11.6213 25.8376 11.2877 25.7004 11.0369 25.4492L10.9233 25.336C10.9218 25.3344 10.9206 25.3328 10.9192 25.3314C10.9175 25.3298 10.9157 25.3283 10.914 25.3267L10.1299 24.5457C9.61247 24.0272 9.61203 23.1855 10.129 22.6691ZM28.568 32.9525C28.2148 32.5988 27.6419 32.5986 27.2884 32.9516L26.4834 33.7557C25.7185 34.5206 24.3325 34.4243 22.9921 34.3313C21.5365 34.2301 20.0314 34.1257 19.0574 35.1257L15.7246 38.4544L7.39046 30.1324L10.3398 27.1884C10.8273 27.4872 11.3899 27.6474 11.9784 27.6474C12.8193 27.6474 13.6077 27.3214 14.1967 26.7314C14.7895 26.141 15.1161 25.3529 15.1161 24.5124C15.1161 24.5045 15.1156 24.4968 15.1156 24.489C15.1234 24.4891 15.1312 24.4895 15.139 24.4895C15.9787 24.4895 16.7666 24.1646 17.3563 23.5756C17.9492 22.9851 18.2757 22.197 18.2757 21.3565C18.2757 21.3487 18.2752 21.341 18.2752 21.3331C18.2831 21.3331 18.291 21.3337 18.299 21.3337C19.1384 21.3337 19.9267 21.0091 20.5204 20.4178C21.1367 19.8005 21.4416 18.9878 21.4357 18.1768C21.4438 18.1768 21.4519 18.1773 21.46 18.1773C22.3008 18.1772 23.0892 17.8513 23.679 17.2604C24.2701 16.6701 24.5957 15.8823 24.5957 15.0423C24.5957 14.4548 24.436 13.8932 24.1381 13.4067L26.7232 10.8227C26.9158 10.6309 27.1534 10.5105 27.4023 10.4608C27.4293 10.4579 27.4559 10.4536 27.4822 10.4484C27.8817 10.3933 28.3011 10.5166 28.6066 10.8208C29.124 11.3391 29.124 12.1824 28.6085 12.6988L27.8212 13.4829C27.8186 13.4855 27.8158 13.4878 27.8132 13.4904L26.9064 14.3957C26.5528 14.7488 26.5524 15.3217 26.9056 15.6752C27.2589 16.0289 27.8317 16.0291 28.1852 15.676L28.9756 14.8867C28.9758 14.8865 28.976 14.8863 28.9761 14.8861L29.0956 14.7671C29.6145 14.253 30.4551 14.2541 30.9734 14.7717C31.2228 15.02 31.3601 15.3527 31.3601 15.7085C31.3601 16.0642 31.2228 16.3969 30.9714 16.6472L30.1796 17.4406C30.1795 17.4407 30.1794 17.4408 30.1793 17.4409L29.2726 18.344C28.9185 18.6966 28.9174 19.2695 29.27 19.6235C29.6227 19.9776 30.1955 19.9787 30.5496 19.6261L31.4604 18.719C31.7094 18.4696 32.043 18.3323 32.3998 18.3323C32.7568 18.3323 33.0904 18.4696 33.3412 18.7208C33.5906 18.9692 33.7279 19.3019 33.7279 19.6576C33.7279 20.0133 33.5906 20.346 33.3398 20.5958L31.7612 22.175C31.4079 22.5284 31.408 23.1013 31.7614 23.4545C31.9381 23.6312 32.1695 23.7194 32.4011 23.7194C32.6327 23.7194 32.8643 23.631 33.0409 23.4543L33.8146 22.6803C33.819 22.6761 33.8237 22.6724 33.8281 22.668C34.0771 22.4186 34.4107 22.2814 34.7676 22.2814C35.1245 22.2814 35.4581 22.4186 35.708 22.6689C36.2248 23.1853 36.2244 24.0271 35.708 24.5444L34.9214 25.3301C34.9211 25.3304 34.9207 25.3307 34.9205 25.3309C34.9202 25.3312 34.9199 25.3316 34.9197 25.3318L33.6712 26.5788C33.3177 26.9319 33.3173 27.5049 33.6704 27.8584C33.8471 28.0353 34.0789 28.1238 34.3106 28.1238C34.542 28.1238 34.7734 28.0356 34.95 27.8592L35.5607 27.2493L38.4875 30.1727L30.1541 38.496L27.1682 35.5137C27.3764 35.3799 27.5756 35.2224 27.7625 35.0355L28.5671 34.2319C28.9208 33.8789 28.9212 33.306 28.568 32.9525ZM43.7586 34.073L34.0608 43.759C33.8339 43.9856 33.5302 44.1104 33.2057 44.1104C32.8812 44.1104 32.5775 43.9856 32.3506 43.7589L30.7516 42.162C30.525 41.9358 30.4003 41.633 30.4003 41.3095C30.4003 40.986 30.525 40.6832 30.7516 40.4569L40.4495 30.7709C40.6764 30.5442 40.98 30.4194 41.3046 30.4194C41.6291 30.4194 41.9328 30.5442 42.1603 30.7714L43.7587 32.3653C43.9853 32.5916 44.11 32.8948 44.11 33.2191C44.11 33.5435 43.9852 33.8468 43.7586 34.073Z" fill="white"/>
<path d="M10.9051 5.08243C11.0817 5.25871 11.313 5.34675 11.5442 5.34675C11.776 5.34675 12.0079 5.25817 12.1846 5.08109C12.5376 4.72737 12.5371 4.15453 12.1834 3.80153L8.88629 0.511004C8.53266 0.158008 7.95973 0.158457 7.60673 0.512262C7.25374 0.865976 7.25428 1.43882 7.60799 1.79182L10.9051 5.08243Z" fill="white"/>
<path d="M34.2954 5.34684C34.5267 5.34684 34.7581 5.25862 34.9348 5.08225L38.2294 1.79163C38.5829 1.43855 38.5833 0.865615 38.2301 0.51208C37.877 0.158545 37.3041 0.158186 36.9505 0.511361L33.6559 3.80198C33.3024 4.15506 33.302 4.728 33.6552 5.08153C33.8319 5.25844 34.0637 5.34684 34.2954 5.34684Z" fill="white"/>
<path d="M5.64391 38.9206C5.29361 39.277 5.29846 39.8499 5.65487 40.2002L5.65747 40.2027C5.8333 40.3756 6.06159 40.4616 6.28979 40.4616C6.52402 40.4616 6.75824 40.371 6.93568 40.1905C7.28598 39.8342 7.27978 39.26 6.92346 38.9097C6.56723 38.5594 5.99439 38.5643 5.64391 38.9206Z" fill="white"/>
<path d="M30.781 31.649C30.9187 31.649 31.0583 31.6177 31.1893 31.5516C31.6355 31.3266 31.8147 30.7825 31.5898 30.3363C31.3647 29.8902 30.8205 29.7108 30.3745 29.9359L30.3694 29.9384C29.9233 30.1635 29.7466 30.7063 29.9715 31.1525C30.1304 31.4676 30.4498 31.649 30.781 31.649Z" fill="white"/>
</svg>
